<svg width="302" height="174" viewBox="0 0 302 174" fill="none" xmlns="http://www.w3.org/2000/svg">
<g clip-path="url(#clip0_1_5)">
<path d="M5.20385 66.8209H104.441C105.733 66.8209 106.972 67.3342 107.886 68.2477C108.8 69.1613 109.313 70.4004 109.313 71.6924V79.4302H0.332413V71.6924C0.332414 70.4004 0.845654 69.1613 1.75923 68.2477C2.6728 67.3342 3.91187 66.8209 5.20385 66.8209Z" fill="#3F3D56"/>
<path d="M102.558 65.9203C102.068 65.9224 101.581 66.0053 101.118 66.1655C100.959 65.526 100.571 64.9668 100.028 64.5934C99.4848 64.2201 98.8239 64.0586 98.1699 64.1392C97.5158 64.2199 96.9139 64.5372 96.4779 65.0313C96.0418 65.5253 95.8017 66.1619 95.8028 66.8209C95.8028 66.8344 95.8062 66.8469 95.8065 66.8603C95.4687 66.8923 95.1355 66.9613 94.8129 67.0662C94.7213 66.7025 94.5553 66.3618 94.3254 66.0655C94.0955 65.7693 93.8067 65.5239 93.4771 65.345C94.3428 64.8664 95.0275 64.1169 95.4262 63.2117C97.6298 63.1758 99.4055 61.5828 99.4055 59.6156C99.4055 57.6259 97.5909 56.0129 95.3525 56.0129C94.8622 56.0151 94.3756 56.098 93.9122 56.2582C93.8291 55.904 93.675 55.5702 93.4593 55.2772C93.2436 54.9842 92.9708 54.7379 92.6573 54.5532C92.3438 54.3685 91.9962 54.2492 91.6353 54.2026C91.2745 54.156 90.9079 54.183 90.5578 54.282C90.2076 54.381 89.8812 54.5499 89.5981 54.7785C89.3151 55.0071 89.0813 55.2907 88.9109 55.6122C88.7405 55.9337 88.637 56.2863 88.6066 56.6489C88.5763 57.0115 88.6197 57.3765 88.7343 57.7218C88.6266 57.7967 88.5262 57.8809 88.4255 57.9646C87.916 57.5262 87.2544 57.3059 86.5837 57.3516C86.2374 56.3569 85.552 55.5159 84.6478 54.9757C83.7436 54.4356 82.6782 54.2309 81.6382 54.3975C80.5982 54.564 79.65 55.0912 78.9597 55.8867C78.2693 56.6821 77.881 57.6951 77.8625 58.7482C77.5011 58.7768 77.1443 58.848 76.7996 58.9602C76.7608 58.8078 76.7088 58.659 76.6442 58.5157C76.9998 58.202 77.2855 57.8171 77.4828 57.386C77.6801 56.9549 77.7846 56.4871 77.7896 56.0129C77.7896 54.0232 75.975 52.4103 73.7366 52.4103C73.2463 52.4125 72.7597 52.4953 72.2962 52.6555C72.2131 52.3013 72.059 51.9676 71.8434 51.6745C71.6277 51.3815 71.3549 51.1352 71.0414 50.9505C70.7279 50.7658 70.3802 50.6466 70.0194 50.6C69.6585 50.5534 69.292 50.5804 68.9418 50.6793C68.5917 50.7783 68.2653 50.9472 67.9822 51.1758C67.6991 51.4045 67.4654 51.6881 67.2949 52.0095C67.1245 52.331 67.021 52.6837 66.9907 53.0463C66.9603 53.4089 67.0038 53.7738 67.1184 54.1192C66.5512 54.513 66.0825 55.0323 65.7487 55.6367C65.4148 56.2411 65.2248 56.9143 65.1934 57.604C65.1553 57.6379 65.1116 57.6653 65.0755 57.7012C65.1429 57.444 65.1781 57.1795 65.1803 56.9136C65.1803 54.9239 63.3657 53.311 61.1273 53.311C60.637 53.3131 60.1504 53.396 59.687 53.5562C59.6038 53.202 59.4498 52.8683 59.2341 52.5752C59.0184 52.2822 58.7456 52.0359 58.4321 51.8512C58.1186 51.6665 57.7709 51.5473 57.4101 51.5006C57.0492 51.454 56.6827 51.481 56.3325 51.58C55.9824 51.679 55.656 51.8479 55.3729 52.0765C55.0899 52.3051 54.8561 52.5887 54.6856 52.9102C54.5152 53.2317 54.4117 53.5843 54.3814 53.9469C54.351 54.3095 54.3945 54.6745 54.5091 55.0198C53.9112 55.433 53.4225 55.9851 53.0849 56.6287C52.7473 57.2723 52.571 57.9882 52.571 58.7149C52.571 59.4417 52.7473 60.1576 53.0849 60.8012C53.4225 61.4448 53.9112 61.9969 54.5091 62.4101C54.3267 62.9334 54.3267 63.5031 54.5091 64.0265C54.0577 64.3414 53.6673 64.7356 53.3568 65.19C53.1901 64.585 52.8167 64.0576 52.3016 63.6992C51.7865 63.3408 51.1621 63.1742 50.5369 63.2282C49.9118 63.2823 49.3252 63.5536 48.8792 63.995C48.4332 64.4364 48.1559 65.0201 48.0955 65.6447C47.7344 65.4331 47.3443 65.2755 46.9375 65.1769C47.6671 64.6952 48.2416 64.0127 48.5917 63.2117C50.7952 63.1758 52.571 61.5828 52.571 59.6156C52.571 57.6259 50.7564 56.0129 48.518 56.0129C48.0277 56.0151 47.541 56.098 47.0776 56.2582C46.9945 55.904 46.8404 55.5702 46.6248 55.2772C46.4091 54.9842 46.1363 54.7379 45.8228 54.5532C45.5093 54.3685 45.1616 54.2492 44.8008 54.2026C44.4399 54.156 44.0734 54.183 43.7232 54.282C43.3731 54.381 43.0466 54.5499 42.7636 54.7785C42.4805 55.0071 42.2467 55.2907 42.0763 55.6122C41.9059 55.9337 41.8024 56.2863 41.7721 56.6489C41.7417 57.0115 41.7851 57.3765 41.8998 57.7218C41.842 57.762 41.7899 57.8093 41.7341 57.852C41.5936 57.839 41.457 57.8143 41.3127 57.8143C40.8223 57.8164 40.3357 57.8993 39.8723 58.0595C39.8553 57.9916 39.8272 57.9285 39.8053 57.8627C39.8925 57.4617 39.8855 57.046 39.785 56.6482C39.6844 56.2504 39.493 55.8813 39.2257 55.5699C38.9584 55.2585 38.6226 55.0134 38.2446 54.8537C37.8666 54.694 37.4567 54.6242 37.0472 54.6496C36.8127 53.9965 36.4303 53.4065 35.9298 52.9257C35.4294 52.4449 34.8246 52.0864 34.1626 51.8783C33.5006 51.6701 32.7994 51.6179 32.1139 51.7257C31.4284 51.8335 30.7771 52.0984 30.211 52.4998C29.6449 52.9011 29.1793 53.4279 28.8506 54.0391C28.5219 54.6502 28.3391 55.3292 28.3163 56.0227C28.2936 56.7163 28.4316 57.4057 28.7196 58.0371C29.0076 58.6684 29.4377 59.2246 29.9763 59.6622C29.6665 59.6977 29.3609 59.7643 29.0644 59.8608C28.9579 59.4217 28.742 59.0167 28.4368 58.6834C28.1316 58.3502 27.7471 58.0996 27.319 57.9551C26.8909 57.8105 26.4332 57.7765 25.9885 57.8565C25.5437 57.9364 25.1265 58.1276 24.7755 58.4122C24.3741 57.9355 23.8719 57.5538 23.3052 57.2946C22.7384 57.0355 22.1212 56.9053 21.498 56.9136C21.0077 56.9158 20.5211 56.9986 20.0577 57.1588C19.9746 56.8046 19.8205 56.4709 19.6048 56.1779C19.3891 55.8848 19.1163 55.6385 18.8028 55.4539C18.4893 55.2692 18.1417 55.1499 17.7808 55.1033C17.42 55.0567 17.0534 55.0837 16.7033 55.1827C16.3531 55.2816 16.0267 55.4505 15.7436 55.6792C15.4606 55.9078 15.2268 56.1914 15.0564 56.5129C14.886 56.8343 14.7825 57.187 14.7521 57.5496C14.7218 57.9122 14.7652 58.2772 14.8798 58.6225C14.282 59.0358 13.7934 59.5879 13.4559 60.2314C13.1183 60.875 12.9419 61.5909 12.9417 62.3176C12.9417 62.3316 12.9457 62.3444 12.9458 62.3583C12.3072 62.2615 11.6543 62.332 11.051 62.5628C10.9679 62.2086 10.8138 61.8749 10.5982 61.5819C10.3825 61.2888 10.1097 61.0425 9.79618 60.8579C9.48269 60.6732 9.13503 60.5539 8.77418 60.5073C8.41333 60.4607 8.04677 60.4877 7.69664 60.5867C7.34651 60.6857 7.02007 60.8546 6.73702 61.0832C6.45397 61.3118 6.22018 61.5954 6.04976 61.9169C5.87934 62.2383 5.77584 62.591 5.74549 62.9536C5.71513 63.3162 5.75856 63.6811 5.87316 64.0265C5.00455 64.6145 4.36952 65.4884 4.07852 66.4961C3.78751 67.5039 3.85894 68.5818 4.28038 69.5423C4.70183 70.5028 5.44662 71.2853 6.38523 71.7535C7.32385 72.2218 8.3969 72.3462 9.41777 72.1052C9.58033 73.0449 10.038 73.9083 10.7245 74.5703C11.4109 75.2323 12.2904 75.6584 13.2353 75.7867C14.1802 75.9151 15.1415 75.7391 15.9797 75.2843C16.8178 74.8294 17.4893 74.1194 17.8966 73.2571C18.2655 74.0377 18.8517 74.6952 19.5849 75.151C20.3181 75.6068 21.1672 75.8415 22.0304 75.8269C22.8936 75.8123 23.7343 75.5491 24.4517 75.0688C25.1691 74.5885 25.7327 73.9115 26.0751 73.119C26.6058 73.1115 27.1309 73.0099 27.626 72.8187C27.9237 73.6719 28.4721 74.4152 29.1992 74.9516C29.9264 75.4879 30.7986 75.7922 31.7016 75.8247C32.6046 75.8571 33.4963 75.6162 34.2601 75.1334C35.0239 74.6507 35.6242 73.9485 35.9824 73.119C36.639 73.1059 37.2845 72.9462 37.8714 72.6516C38.2824 73.378 38.888 73.9752 39.62 74.376C40.3521 74.7769 41.1815 74.9654 42.0149 74.9204C42.8482 74.8754 43.6525 74.5986 44.3371 74.1212C45.0217 73.6438 45.5594 72.9848 45.8897 72.2183C46.1314 72.2124 46.3722 72.1872 46.6098 72.143C46.9468 72.9603 47.5171 73.6602 48.2496 74.1553C48.982 74.6504 49.8441 74.9187 50.7281 74.9267C51.6121 74.9348 52.4789 74.6822 53.2202 74.2005C53.9616 73.7188 54.5445 73.0294 54.8963 72.2183C55.2501 72.2083 55.6014 72.1565 55.9429 72.064C56.848 72.3162 57.8103 72.2715 58.6881 71.9363C59.5659 71.601 60.313 70.993 60.8196 70.2016C60.5366 71.2983 60.6775 72.4615 61.2141 73.459C61.7508 74.4564 62.6437 75.2149 63.7149 75.5831C64.786 75.9513 65.9566 75.9021 66.9931 75.4454C68.0297 74.9887 68.8559 74.1579 69.307 73.119C69.9636 73.1059 70.6091 72.9462 71.196 72.6516C71.607 73.378 72.2126 73.9752 72.9446 74.376C73.6767 74.7769 74.5061 74.9654 75.3395 74.9204C76.1728 74.8754 76.9771 74.5986 77.6617 74.1212C78.3463 73.6438 78.884 72.9848 79.2143 72.2183C79.8709 72.2053 80.5164 72.0456 81.1034 71.7509C81.4201 72.3153 81.856 72.8039 82.3807 73.1827C82.9053 73.5616 83.5063 73.8217 84.1416 73.9448C84.777 74.068 85.4315 74.0513 86.0598 73.8958C86.688 73.7404 87.2748 73.45 87.7795 73.0449C87.9359 73.9065 88.3411 74.7034 88.9452 75.3373C89.5492 75.9713 90.3256 76.4145 91.1786 76.6123C92.0317 76.8101 92.9239 76.7539 93.7453 76.4505C94.5667 76.1471 95.2813 75.6098 95.8009 74.905C96.3415 75.3192 96.9695 75.6046 97.637 75.7393C98.3046 75.8739 98.9941 75.8544 99.653 75.6821C100.312 75.5099 100.923 75.1894 101.439 74.7452C101.955 74.301 102.363 73.7448 102.632 73.119C104.835 73.0831 106.611 71.4901 106.611 69.5229C106.611 67.5332 104.796 65.9203 102.558 65.9203ZM22.0581 64.0614C22.0534 64.0831 22.0501 64.1054 22.0456 64.1273C22.0127 64.1261 21.9816 64.1189 21.9484 64.1189C21.8138 64.1223 21.6796 64.1359 21.5471 64.1594C21.5544 64.1432 21.5646 64.1287 21.5717 64.1123C21.7347 64.1042 21.897 64.0872 22.0581 64.0614ZM59.6869 62.5628C59.6738 62.5104 59.6513 62.4622 59.6352 62.411C60.3229 61.9342 60.8649 61.276 61.201 60.5097C61.7932 60.5065 62.3782 60.3786 62.9178 60.1343C63.4573 59.89 63.9393 59.5348 64.3324 59.0917C64.2978 59.2642 64.2802 59.4397 64.2796 59.6156C64.2833 59.8905 64.3295 60.1631 64.4164 60.4238C63.643 60.963 63.0577 61.7304 62.7421 62.6187C61.7628 62.2374 60.6796 62.2176 59.6869 62.5628V62.5628ZM86.6622 62.8987C86.6604 62.8435 86.6672 62.7866 86.6636 62.7318C86.7784 62.7313 86.8931 62.7235 87.0069 62.7084C87.1816 63.2912 87.4735 63.8321 87.8649 64.2979C87.7798 64.3217 87.6903 64.3361 87.6075 64.3642C87.4621 63.785 87.1298 63.27 86.6622 62.8987Z" fill="#F9A825"/>
<path d="M9.40502 71.3243C8.12748 71.3242 6.86332 71.5844 5.68967 72.089C4.51603 72.5936 3.45752 73.3321 2.57873 74.2594C1.69993 75.1867 1.0193 76.2833 0.578345 77.4823C0.137393 78.6813 -0.0546254 79.9576 0.0140083 81.2333L6.11284 165.099C6.24144 167.503 7.28696 169.766 9.03403 171.421C10.7811 173.077 13.0967 174 15.5039 174H94.1413C96.5485 174 98.8641 173.077 100.611 171.421C102.358 169.766 103.404 167.503 103.532 165.099L109.631 81.2333C109.7 79.9576 109.508 78.6813 109.067 77.4823C108.626 76.2833 107.945 75.1867 107.066 74.2594C106.188 73.3321 105.129 72.5936 103.956 72.089C102.782 71.5844 101.518 71.3242 100.24 71.3243H9.40502Z" fill="#3F3D56"/>
<path d="M19.2464 71.3243H13.8424V174H19.2464V71.3243Z" fill="#6C63FF"/>
<path d="M34.5577 71.3243H29.1537V174H34.5577V71.3243Z" fill="#6C63FF"/>
<path d="M49.869 71.3243H44.465V174H49.869V71.3243Z" fill="#6C63FF"/>
<path d="M65.1803 71.3243H59.7763V174H65.1803V71.3243Z" fill="#6C63FF"/>
<path d="M80.4916 71.3243H75.0876V174H80.4916V71.3243Z" fill="#6C63FF"/>
<path d="M95.8029 71.3243H90.3989V174H95.8029V71.3243Z" fill="#6C63FF"/>
<path d="M183.968 29.231L181.612 23.4931L150.202 36.3886C149.49 36.681 148.882 37.1781 148.454 37.8168C148.026 38.4556 147.797 39.2071 147.797 39.976V73.9126H154.001V41.5418L183.968 29.231Z" fill="#3F3D56"/>
<path d="M179.931 17.2577H173.167V38.6816H179.931V17.2577Z" fill="#6C63FF"/>
<path d="M169.221 21.7673H162.457V43.1912H169.221V21.7673Z" fill="#6C63FF"/>
<path d="M158.789 40.091L153.998 41.5002L152.025 18.6671H158.789V40.091Z" fill="#6C63FF"/>
<path d="M162.735 42.6275H141.311V49.3919H162.735V42.6275Z" fill="#6C63FF"/>
<path d="M162.739 51.932H141.315V58.6963H162.739V51.932Z" fill="#6C63FF"/>
<path d="M162.735 61.2364H141.311V68.0008H162.735V61.2364Z" fill="#6C63FF"/>
<path d="M173.167 174H131.728L121.578 72.5105H182.189L173.167 174Z" fill="#3F3D56"/>
<path d="M186.699 70.8192H117.351V77.5836H186.699V70.8192Z" fill="#3F3D56"/>
<path d="M257.252 46.679C270.123 46.679 280.558 36.2443 280.558 23.3726C280.558 10.5008 270.123 0.0661774 257.252 0.0661774C244.38 0.0661774 233.945 10.5008 233.945 23.3726C233.945 36.2443 244.38 46.679 257.252 46.679Z" fill="#3AD29F"/>
<path d="M272.683 23.3725L249.356 34.8343V23.3725V11.9107L272.683 23.3725Z" fill="url(#paint0_linear_1_5)"/>
<path d="M271.281 23.3725L250.755 33.4599V23.3725V13.2851L271.281 23.3725Z" fill="white"/>
<path opacity="0.2" d="M235.852 26.0484C235.856 21.2519 237.339 16.5733 240.099 12.6507C242.859 8.72798 246.762 5.75214 251.276 4.12893C255.789 2.50573 260.693 2.31417 265.32 3.58039C269.946 4.8466 274.069 7.50895 277.127 11.2044C275.461 8.46503 273.249 6.09866 270.627 4.25318C268.005 2.40769 265.031 1.12275 261.891 0.47867C258.75 -0.165416 255.51 -0.154803 252.374 0.509842C249.238 1.17449 246.272 2.47888 243.663 4.3415C241.053 6.20412 238.856 8.58493 237.208 11.3351C235.561 14.0854 234.498 17.1458 234.086 20.3254C233.675 23.5049 233.924 26.7351 234.817 29.8141C235.711 32.8931 237.23 35.7547 239.279 38.2201C237.032 34.5586 235.845 30.3447 235.852 26.0484Z" fill="white"/>
<path d="M253.158 144.337C252.886 144.337 252.626 144.445 252.434 144.637C252.241 144.829 252.133 145.09 252.133 145.361V172.976C252.133 173.247 252.241 173.508 252.434 173.7C252.626 173.892 252.886 174 253.158 174H300.694C300.966 174 301.226 173.892 301.419 173.7C301.611 173.508 301.719 173.247 301.719 172.976V145.361C301.719 145.09 301.611 144.829 301.419 144.637C301.226 144.445 300.966 144.337 300.694 144.337H253.158Z" fill="#3F3D56"/>
<path d="M258.47 146.772C257.964 146.773 257.479 146.974 257.121 147.332C256.763 147.69 256.561 148.176 256.561 148.682V169.655C256.561 170.161 256.763 170.647 257.121 171.005C257.479 171.363 257.964 171.564 258.47 171.565H295.382C295.888 171.564 296.374 171.363 296.732 171.005C297.09 170.647 297.291 170.161 297.292 169.655V148.682C297.291 148.176 297.09 147.69 296.732 147.332C296.374 146.974 295.888 146.773 295.382 146.772L258.47 146.772Z" fill="#FF6584"/>
<path d="M253.692 153.433H228.931V159.168H253.692V153.433Z" fill="#3F3D56"/>
<path d="M185.843 144.337C185.572 144.337 185.312 144.446 185.12 144.638C184.928 144.83 184.82 145.09 184.819 145.361V172.976C184.82 173.247 184.928 173.507 185.12 173.699C185.312 173.891 185.572 174 185.843 174H233.38C233.652 174 233.912 173.891 234.104 173.699C234.296 173.507 234.404 173.247 234.405 172.976V145.361C234.404 145.09 234.296 144.83 234.104 144.638C233.912 144.446 233.652 144.337 233.38 144.337H185.843Z" fill="#3F3D56"/>
<path d="M191.157 146.772C190.65 146.773 190.165 146.974 189.806 147.332C189.448 147.69 189.247 148.175 189.246 148.682V169.655C189.247 170.162 189.448 170.647 189.806 171.005C190.165 171.363 190.65 171.564 191.157 171.565H228.067C228.574 171.564 229.059 171.363 229.418 171.005C229.776 170.647 229.977 170.162 229.978 169.655V148.682C229.977 148.176 229.776 147.69 229.418 147.332C229.059 146.974 228.574 146.773 228.067 146.772L191.157 146.772Z" fill="#6C63FF"/>
</g>
<defs>
<linearGradient id="paint0_linear_1_5" x1="261.02" y1="34.8344" x2="261.02" y2="11.9108" gradientUnits="userSpaceOnUse">
<stop stop-opacity="0.12"/>
<stop offset="0.55" stop-opacity="0.09"/>
<stop offset="1" stop-opacity="0.02"/>
</linearGradient>
<clipPath id="clip0_1_5">
<rect width="301.719" height="174" fill="white"/>
</clipPath>
</defs>
</svg>
